<svg width="532" height="503" xmlns="http://www.w3.org/2000/svg" xmlns:xlink="http://www.w3.org/1999/xlink" overflow="hidden"><defs><clipPath id="clip0"><rect x="383" y="81" width="532" height="503"/></clipPath><clipPath id="clip1"><rect x="458" y="149" width="62" height="62"/></clipPath><clipPath id="clip2"><rect x="458" y="149" width="62" height="62"/></clipPath><clipPath id="clip3"><rect x="458" y="149" width="62" height="62"/></clipPath><clipPath id="clip4"><rect x="762" y="150" width="62" height="56"/></clipPath><clipPath id="clip5"><rect x="762" y="150" width="62" height="56"/></clipPath><clipPath id="clip6"><rect x="762" y="150" width="62" height="56"/></clipPath><clipPath id="clip7"><rect x="762" y="150" width="62" height="56"/></clipPath><clipPath id="clip8"><rect x="762" y="150" width="62" height="56"/></clipPath><clipPath id="clip9"><rect x="762" y="150" width="62" height="56"/></clipPath><clipPath id="clip10"><rect x="618" y="447" width="62" height="62"/></clipPath><clipPath id="clip11"><rect x="618" y="447" width="62" height="62"/></clipPath><clipPath id="clip12"><rect x="618" y="447" width="62" height="62"/></clipPath><clipPath id="clip13"><rect x="629" y="160" width="41" height="41"/></clipPath><clipPath id="clip14"><rect x="629" y="160" width="41" height="41"/></clipPath><clipPath id="clip15"><rect x="629" y="160" width="41" height="41"/></clipPath><clipPath id="clip16"><rect x="535" y="314" width="41" height="41"/></clipPath><clipPath id="clip17"><rect x="535" y="314" width="41" height="41"/></clipPath><clipPath id="clip18"><rect x="535" y="314" width="41" height="41"/></clipPath><clipPath id="clip19"><rect x="722" y="314" width="41" height="41"/></clipPath><clipPath id="clip20"><rect x="722" y="314" width="41" height="41"/></clipPath><clipPath id="clip21"><rect x="722" y="314" width="41" height="41"/></clipPath><clipPath id="clip22"><rect x="628" y="267" width="41" height="41"/></clipPath><clipPath id="clip23"><rect x="628" y="267" width="41" height="41"/></clipPath><clipPath id="clip24"><rect x="628" y="267" width="41" height="41"/></clipPath></defs><g clip-path="url(#clip0)" transform="translate(-383 -81)"><path d="M386 250C386 158.321 460.321 84 552 84 643.679 84 718 158.321 718 250 718 341.679 643.679 416 552 416 460.321 416 386 341.679 386 250Z" stroke="#000000" stroke-width="4" stroke-miterlimit="8" fill="none" fill-rule="evenodd"/><path d="M483 416C483 324.321 557.321 250 649 250 740.679 250 815 324.321 815 416 815 507.679 740.679 582 649 582 557.321 582 483 507.679 483 416Z" stroke="#000000" stroke-width="4" stroke-miterlimit="8" fill="none" fill-rule="evenodd"/><path d="M581 250C581 158.321 655.321 84 747 84 838.679 84 913 158.321 913 250 913 341.679 838.679 416 747 416 655.321 416 581 341.679 581 250Z" stroke="#000000" stroke-width="4" stroke-miterlimit="8" fill="none" fill-rule="evenodd"/><text font-family="Avenir Next LT Pro,Avenir Next LT Pro_MSFontService,sans-serif" font-weight="600" font-size="13" transform="translate(463.841 229)">Hacking <tspan font-size="13" x="9.66666" y="16">Skills</tspan></text><g clip-path="url(#clip1)"><g clip-path="url(#clip2)"><g clip-path="url(#clip3)"><path d="M478.15 182.26C475.696 183.229 473.435 184.521 471.369 186.135 469.948 187.298 469.044 189.042 468.979 190.915L467.881 200.473C467.688 201.894 468.333 203.315 469.496 204.09 470.658 204.865 471.885 205.446 473.177 205.962L473.758 205.962 473.758 203.444C472.79 203.056 471.821 202.54 470.917 201.958 470.529 201.7 470.335 201.248 470.4 200.796L471.563 191.108 471.563 190.979C471.627 189.817 472.144 188.783 473.048 188.073 474.792 186.587 477.31 185.231 480.798 183.94 482.735 185.102 485.706 185.813 489 185.813 492.294 185.813 495.265 185.102 497.202 183.94 500.754 185.231 503.208 186.587 504.952 188.073 505.856 188.783 506.373 189.881 506.438 190.979L507.6 200.731C507.665 201.183 507.471 201.635 507.083 201.894L507.083 201.894C506.179 202.475 505.275 202.992 504.242 203.379L504.242 205.898 504.823 205.898C506.115 205.446 507.342 204.8 508.504 204.025L508.504 204.025C509.667 203.185 510.313 201.829 510.119 200.408L509.021 190.915C508.956 189.042 508.052 187.298 506.631 186.135 504.565 184.521 502.304 183.165 499.85 182.26 499.85 178.967 499.979 169.925 499.979 166.244 499.979 165.21 499.85 164.177 499.592 163.144 498.752 160.044 496.621 157.46 493.779 155.975 493.521 155.846 493.133 155.846 492.94 156.04L492.358 156.492 491.712 155.587C491.519 155.265 491.196 155.071 490.873 155.006 490.227 154.877 489.646 154.813 489 154.813 486.417 154.813 483.833 155.781 481.896 157.46 479.442 159.656 478.085 162.756 478.15 166.05L478.15 182.26ZM481.379 171.733 481.831 166.438 496.104 166.438 496.556 171.733C495.781 175.931 491.777 178.708 487.515 177.933 484.415 177.352 481.96 174.898 481.379 171.733ZM483.962 182.519C484.673 181.938 485.125 180.969 485.125 180L485.125 179.871C487.579 180.904 490.421 180.904 492.875 179.871L492.875 180C492.875 180.969 493.327 181.873 494.038 182.519 492.423 183.035 490.679 183.229 489 183.229 487.321 183.229 485.577 183.035 483.962 182.519Z"/><path d="M502.95 191.173C502.95 190.269 502.24 189.558 501.335 189.558L501.335 189.558 476.729 189.558C475.825 189.558 475.115 190.269 475.115 191.173L475.115 191.173 475.115 207.254 470.206 207.254 470.206 208.094C470.206 208.998 470.917 209.708 471.821 209.708L506.244 209.708C507.148 209.708 507.858 208.998 507.858 208.094L507.858 207.254 502.95 207.254 502.95 191.173ZM485.642 201.829 484.737 202.733 481.121 199.117 484.737 195.5 485.642 196.404 482.929 199.117 485.642 201.829ZM488.096 203.185 486.933 202.669 489.969 195.371 491.131 195.887 488.096 203.185ZM493.263 202.798 492.358 201.894 495.071 199.181 492.358 196.469 493.263 195.565 496.879 199.181 493.263 202.798Z"/></g></g></g><text font-family="Avenir Next LT Pro,Avenir Next LT Pro_MSFontService,sans-serif" font-weight="600" font-size="13" transform="translate(771.602 227)">Stats &amp; <tspan font-size="13" x="2.57996" y="16">Maths</tspan></text><g clip-path="url(#clip4)"><g clip-path="url(#clip5)"><g clip-path="url(#clip6)"><g clip-path="url(#clip7)"><g clip-path="url(#clip8)"><g clip-path="url(#clip9)"><path d="M19.8197 13.8738 13.8738 13.8738 13.8738 81.2611 81.2611 81.2611 81.2611 75.3148 19.8197 75.3148 19.8197 13.8738Z" transform="matrix(1 0 0 1.00186 739.573 134.631)"/><path d="M80.5227 62.112C77.0671 62.2347 67.847 62.5638 65.9552 43.8303 64.4142 28.5057 60.4602 21.9672 52.7502 21.9672 45.0403 21.9672 41.0913 28.5057 39.5404 43.8303 37.6575 62.5638 28.4413 62.2238 24.9778 62.112 24.6894 62.1011 24.4417 62.0934 24.2396 62.0934L24.2396 68.0393C24.3832 68.0393 24.5606 68.0461 24.7667 68.0538 25.0779 68.0647 25.3851 68.0697 25.6903 68.0697 37.2254 68.0697 43.8759 60.1212 45.4606 44.4279 47.1274 27.9131 51.2083 27.9131 52.7502 27.9131 54.2921 27.9131 58.3729 27.9131 60.0398 44.4279 61.6671 60.5365 68.6178 68.4483 80.7349 68.0538 80.9398 68.0461 81.1162 68.0393 81.2611 68.0393L81.2611 62.0934C81.0625 62.0934 80.8108 62.1011 80.5227 62.112Z" transform="matrix(1 0 0 1.00186 739.573 134.631)"/><path d="M51.7591 42.7779 53.7413 42.7779 53.7413 47.7327 51.7591 47.7327Z" transform="matrix(1 0 0 1.00186 739.573 134.631)"/><path d="M51.7591 51.6968 53.7413 51.6968 53.7413 56.6515 51.7591 56.6515Z" transform="matrix(1 0 0 1.00186 739.573 134.631)"/><path d="M51.7591 34.1901 53.7413 34.1901 53.7413 39.145 51.7591 39.145Z" transform="matrix(1 0 0 1.00186 739.573 134.631)"/><path d="M51.7591 60.6156 53.7413 60.6156 53.7413 65.4049 51.7591 65.4049Z" transform="matrix(1 0 0 1.00186 739.573 134.631)"/></g></g></g></g></g></g><text font-family="Avenir Next LT Pro,Avenir Next LT Pro_MSFontService,sans-serif" font-weight="600" font-size="13" transform="translate(622.424 527)">Business <tspan font-size="13" x="1.24664" y="16">Acumen</tspan></text><g clip-path="url(#clip10)"><g clip-path="url(#clip11)"><g clip-path="url(#clip12)"><path d="M653.734 472.297 654.283 470.67 653.043 469.43 651.415 469.979C650.992 469.74 650.541 469.556 650.072 469.43L649.31 467.912 647.579 467.912 646.811 469.436C646.34 469.564 645.887 469.748 645.461 469.985L643.833 469.436 642.593 470.676 643.11 472.304C642.862 472.725 642.671 473.176 642.542 473.647L641.018 474.409 641.018 476.114 642.542 476.883C642.667 477.352 642.852 477.803 643.091 478.226L642.542 479.854 643.833 481.094 645.461 480.538C645.884 480.779 646.335 480.965 646.804 481.094L647.566 482.611 649.297 482.611 650.066 481.119C650.527 480.994 650.971 480.814 651.39 480.583L653.011 481.139 654.251 479.892 653.702 478.271C653.948 477.845 654.146 477.392 654.289 476.921L655.807 476.159 655.807 474.409 654.283 473.641C654.16 473.171 653.975 472.719 653.734 472.297ZM648.438 477.871C647.011 477.871 645.855 476.714 645.855 475.288 645.855 473.861 647.011 472.704 648.438 472.704 649.856 472.725 651.001 473.869 651.021 475.288 651.021 476.714 649.865 477.871 648.438 477.871Z"/><path d="M653.986 495.302 642.871 495.302C641.842 495.363 641.057 496.246 641.118 497.275 641.173 498.219 641.927 498.973 642.871 499.028L653.986 499.028C655.015 498.968 655.8 498.084 655.739 497.055 655.684 496.111 654.93 495.357 653.986 495.302Z"/><path d="M648.432 505.338C650.54 505.335 652.294 503.714 652.462 501.612L644.395 501.612C644.567 503.715 646.322 505.335 648.432 505.338Z"/><path d="M664.558 475.72 664.558 475.165C664.394 466.349 657.229 459.274 648.412 459.219L648.412 459.219C639.596 459.274 632.431 466.349 632.266 475.165L632.266 475.72C632.326 477.632 632.705 479.521 633.39 481.307 634.044 482.992 634.993 484.547 636.193 485.899 637.672 487.507 639.287 490.639 639.971 492.034 640.181 492.455 640.612 492.721 641.082 492.719L655.742 492.719C656.213 492.721 656.644 492.455 656.853 492.034 657.538 490.639 659.153 487.513 660.631 485.899 661.832 484.547 662.781 482.992 663.434 481.307 664.119 479.521 664.499 477.632 664.558 475.72ZM660.838 475.662C660.792 477.146 660.502 478.612 659.979 480.002 659.489 481.254 658.78 482.408 657.887 483.412 656.453 485.119 655.224 486.987 654.225 488.979L642.6 488.979C641.612 486.982 640.394 485.107 638.97 483.393 638.077 482.389 637.368 481.234 636.878 479.983 636.344 478.595 636.043 477.129 635.986 475.643L635.986 475.178C636.102 468.396 641.611 462.948 648.393 462.907L648.393 462.907C655.175 462.948 660.684 468.396 660.799 475.178Z"/><path d="M648.554 456.688C649.268 456.688 649.846 456.109 649.846 455.396L649.846 450.875C649.846 450.162 649.268 449.583 648.554 449.583 647.841 449.583 647.263 450.162 647.263 450.875L647.263 455.396C647.263 456.109 647.841 456.688 648.554 456.688Z"/><path d="M633.229 462.364C633.733 462.865 634.546 462.865 635.05 462.364 635.551 461.861 635.551 461.047 635.05 460.543L631.853 457.333C631.324 456.855 630.507 456.897 630.029 457.426 629.584 457.919 629.585 458.67 630.032 459.161Z"/><path d="M662.989 462.991C663.333 462.991 663.663 462.854 663.906 462.61L667.096 459.381C667.512 458.801 667.38 457.994 666.801 457.578 666.343 457.25 665.726 457.255 665.275 457.592L662.046 460.821C661.545 461.325 661.545 462.138 662.046 462.642 662.3 462.881 662.64 463.007 662.989 462.991Z"/><path d="M628.495 473.802 623.974 473.802C623.261 473.802 622.682 474.38 622.682 475.094 622.682 475.807 623.261 476.385 623.974 476.385L628.495 476.385C629.208 476.385 629.786 475.807 629.786 475.094 629.786 474.38 629.208 473.802 628.495 473.802Z"/><path d="M633.229 487.778 630.032 491.007C629.49 491.471 629.427 492.286 629.891 492.828 630.355 493.37 631.17 493.433 631.712 492.969 631.763 492.926 631.81 492.879 631.853 492.828L635.05 489.599C635.514 489.057 635.451 488.242 634.909 487.778 634.426 487.364 633.712 487.364 633.229 487.778Z"/><path d="M663.906 487.533C663.428 487.003 662.611 486.961 662.081 487.439 661.552 487.917 661.51 488.734 661.988 489.264 662.017 489.295 662.047 489.325 662.078 489.354L665.307 492.583C665.764 493.131 666.578 493.205 667.126 492.749 667.675 492.292 667.749 491.478 667.292 490.93 667.23 490.855 667.16 490.788 667.083 490.729Z"/><path d="M672.896 473.757 668.375 473.757C667.662 473.757 667.083 474.335 667.083 475.049 667.083 475.762 667.662 476.34 668.375 476.34L672.896 476.34C673.609 476.34 674.188 475.762 674.188 475.049 674.188 474.335 673.609 473.757 672.896 473.757Z"/></g></g></g><text font-family="Avenir Next LT Pro,Avenir Next LT Pro_MSFontService,sans-serif" font-weight="600" font-size="13" transform="translate(622.674 218)">Machine <tspan font-size="13" x="-0.666626" y="16">Learning</tspan></text><g clip-path="url(#clip13)"><g clip-path="url(#clip14)"><g clip-path="url(#clip15)"><path d="M633.271 174.521 636.26 174.521 636.26 176.229 633.271 176.229Z"/><path d="M633.271 171.104 636.26 171.104 636.26 172.813 633.271 172.813Z"/><path d="M633.271 177.938 636.26 177.938 636.26 179.646 633.271 179.646Z"/><path d="M633.271 188.188 636.26 188.188 636.26 189.896 633.271 189.896Z"/><path d="M633.271 184.771 636.26 184.771 636.26 186.479 633.271 186.479Z"/><path d="M633.271 181.354 636.26 181.354 636.26 183.063 633.271 183.063Z"/><path d="M662.74 184.771 665.729 184.771 665.729 186.479 662.74 186.479Z"/><path d="M662.74 188.188 665.729 188.188 665.729 189.896 662.74 189.896Z"/><path d="M662.74 181.354 665.729 181.354 665.729 183.063 662.74 183.063Z"/><path d="M662.74 171.104 665.729 171.104 665.729 172.813 662.74 172.813Z"/><path d="M662.74 177.938 665.729 177.938 665.729 179.646 662.74 179.646Z"/><path d="M662.74 174.521 665.729 174.521 665.729 176.229 662.74 176.229Z"/><path d="M650.354 164.271 652.063 164.271 652.063 167.26 650.354 167.26Z"/><path d="M657.188 164.271 658.896 164.271 658.896 167.26 657.188 167.26Z"/><path d="M653.771 164.271 655.479 164.271 655.479 167.26 653.771 167.26Z"/><path d="M646.938 164.271 648.646 164.271 648.646 167.26 646.938 167.26Z"/><path d="M640.104 164.271 641.813 164.271 641.813 167.26 640.104 167.26Z"/><path d="M643.521 164.271 645.229 164.271 645.229 167.26 643.521 167.26Z"/><path d="M643.521 193.74 645.229 193.74 645.229 196.729 643.521 196.729Z"/><path d="M640.104 193.74 641.813 193.74 641.813 196.729 640.104 196.729Z"/><path d="M646.938 193.74 648.646 193.74 648.646 196.729 646.938 196.729Z"/><path d="M650.354 193.74 652.063 193.74 652.063 196.729 650.354 196.729Z"/><path d="M653.771 193.74 655.479 193.74 655.479 196.729 653.771 196.729Z"/><path d="M657.188 193.74 658.896 193.74 658.896 196.729 657.188 196.729Z"/><path d="M643.948 174.948 655.052 174.948 655.052 186.052 643.948 186.052Z"/><path d="M659.323 168.969 639.677 168.969C638.734 168.969 637.969 169.734 637.969 170.677L637.969 190.323C637.969 191.266 638.734 192.031 639.677 192.031L659.323 192.031C660.266 192.031 661.031 191.266 661.031 190.323L661.031 170.677C661.031 169.734 660.266 168.969 659.323 168.969ZM656.76 187.76 642.24 187.76 642.24 173.24 656.76 173.24Z"/></g></g></g><text font-family="Avenir Next LT Pro,Avenir Next LT Pro_MSFontService,sans-serif" font-weight="600" font-size="13" transform="translate(540.435 371)">Data <tspan font-size="13" x="-18.9133" y="16">Processing</tspan></text><g clip-path="url(#clip16)"><g clip-path="url(#clip17)"><g clip-path="url(#clip18)"><path d="M554.219 342.615 556.781 342.615 556.781 346.031 554.219 346.031Z"/><path d="M554.219 347.74 556.781 347.74 556.781 350.302 554.219 350.302Z"/><path d="M558.49 347.74 570.875 347.74 570.875 350.302 558.49 350.302Z"/><path d="M540.125 347.74 552.51 347.74 552.51 350.302 540.125 350.302Z"/><path d="M567.638 335.781 543.362 335.781C542.518 335.781 541.833 336.466 541.833 337.31L541.833 341.086C541.833 341.93 542.518 342.615 543.362 342.615L567.638 342.615C568.482 342.615 569.167 341.93 569.167 341.086L569.167 337.31C569.167 336.466 568.482 335.781 567.638 335.781ZM546.104 340.052C545.632 340.052 545.25 339.67 545.25 339.198 545.25 338.726 545.632 338.344 546.104 338.344 546.576 338.344 546.958 338.726 546.958 339.198 546.958 339.67 546.576 340.052 546.104 340.052ZM550.375 340.052C549.903 340.052 549.521 339.67 549.521 339.198 549.521 338.726 549.903 338.344 550.375 338.344 550.847 338.344 551.229 338.726 551.229 339.198 551.229 339.67 550.847 340.052 550.375 340.052ZM554.646 340.052C554.174 340.052 553.792 339.67 553.792 339.198 553.792 338.726 554.174 338.344 554.646 338.344 555.118 338.344 555.5 338.726 555.5 339.198 555.5 339.67 555.118 340.052 554.646 340.052Z"/><path d="M567.638 327.24 543.362 327.24C542.518 327.24 541.833 327.924 541.833 328.769L541.833 332.544C541.833 333.388 542.518 334.073 543.362 334.073L567.638 334.073C568.482 334.073 569.167 333.388 569.167 332.544L569.167 328.769C569.167 327.924 568.482 327.24 567.638 327.24ZM546.104 331.51C545.632 331.51 545.25 331.128 545.25 330.656 545.25 330.185 545.632 329.802 546.104 329.802 546.576 329.802 546.958 330.185 546.958 330.656 546.958 331.128 546.576 331.51 546.104 331.51ZM550.375 331.51C549.903 331.51 549.521 331.128 549.521 330.656 549.521 330.185 549.903 329.802 550.375 329.802 550.847 329.802 551.229 330.185 551.229 330.656 551.229 331.128 550.847 331.51 550.375 331.51ZM554.646 331.51C554.174 331.51 553.792 331.128 553.792 330.656 553.792 330.185 554.174 329.802 554.646 329.802 555.118 329.802 555.5 330.185 555.5 330.656 555.5 331.128 555.118 331.51 554.646 331.51Z"/><path d="M567.638 318.698 543.362 318.698C542.518 318.698 541.833 319.382 541.833 320.227L541.833 324.002C541.833 324.847 542.518 325.531 543.362 325.531L567.638 325.531C568.482 325.531 569.167 324.847 569.167 324.002L569.167 320.227C569.167 319.382 568.482 318.698 567.638 318.698ZM546.104 322.969C545.632 322.969 545.25 322.586 545.25 322.115 545.25 321.643 545.632 321.26 546.104 321.26 546.576 321.26 546.958 321.643 546.958 322.115 546.958 322.586 546.576 322.969 546.104 322.969ZM550.375 322.969C549.903 322.969 549.521 322.586 549.521 322.115 549.521 321.643 549.903 321.26 550.375 321.26 550.847 321.26 551.229 321.643 551.229 322.115 551.229 322.586 550.847 322.969 550.375 322.969ZM554.646 322.969C554.174 322.969 553.792 322.586 553.792 322.115 553.792 321.643 554.174 321.26 554.646 321.26 555.118 321.26 555.5 321.643 555.5 322.115 555.5 322.586 555.118 322.969 554.646 322.969Z"/></g></g></g><text font-family="Avenir Next LT Pro,Avenir Next LT Pro_MSFontService,sans-serif" font-weight="600" font-size="13" transform="translate(715.966 372)">Business <tspan font-size="13" x="-0.920044" y="16">Analytics</tspan></text><g clip-path="url(#clip19)"><g clip-path="url(#clip20)"><g clip-path="url(#clip21)"><path d="M730.542 319.552 727.979 319.552 727.979 349.448 757.448 349.448 757.448 346.885 730.542 346.885 730.542 319.552Z"/><path d="M757.448 344.323 751.042 344.323 751.042 319.552 757.448 319.552Z"/><path d="M748.479 344.323 742.073 344.323 742.073 328.094 748.479 328.094Z"/><path d="M739.51 344.323 733.104 344.323 733.104 335.781 739.51 335.781Z"/><path d="M746.771 325.42 746.771 319.552 740.903 319.552 743.235 321.884 732.929 332.189 734.133 333.394 744.439 323.093 746.771 325.42Z"/></g></g></g><text font-family="Avenir Next LT Pro,Avenir Next LT Pro_MSFontService,sans-serif" font-weight="600" font-size="13" transform="translate(633.977 325)">Data <tspan font-size="13" x="-9" y="16">Science</tspan></text><g clip-path="url(#clip22)"><g clip-path="url(#clip23)"><g clip-path="url(#clip24)"><path d="M650.934 287.5C650.934 288.915 649.787 290.063 648.372 290.063 646.957 290.063 645.809 288.915 645.809 287.5 645.809 286.085 646.957 284.938 648.372 284.938 649.787 284.938 650.934 286.085 650.934 287.5Z"/><path d="M663.405 278.958C662.679 277.72 661.056 277.122 658.835 277.122 657.426 277.122 655.803 277.378 654.009 277.848 652.771 273.364 650.721 270.417 648.372 270.417 646.066 270.417 643.973 273.321 642.777 277.763 641.069 277.335 639.531 277.079 638.165 277.079 635.944 277.079 634.321 277.677 633.595 278.916 632.399 280.966 633.979 284.254 637.268 287.585 634.107 290.831 632.655 293.992 633.808 295.999 634.534 297.237 636.157 297.835 638.378 297.835 639.659 297.835 641.154 297.622 642.777 297.237 644.016 301.679 646.066 304.583 648.372 304.583 650.678 304.583 652.771 301.679 653.967 297.237 655.675 297.665 657.213 297.921 658.579 297.921 660.8 297.921 662.423 297.323 663.149 296.084 664.302 294.077 662.85 290.917 659.69 287.671 663.064 284.297 664.601 281.008 663.405 278.958ZM658.835 278.83C660.416 278.83 661.569 279.215 661.91 279.813 662.551 280.923 661.398 283.528 658.494 286.432 657.469 285.493 656.316 284.553 655.034 283.656 654.906 282.204 654.693 280.795 654.394 279.471 656.017 279.044 657.554 278.83 658.835 278.83ZM651.191 291.942C650.294 292.454 649.397 292.924 648.5 293.351 647.603 292.924 646.706 292.454 645.809 291.942 644.955 291.429 644.101 290.917 643.332 290.404 643.247 289.465 643.247 288.525 643.247 287.5 643.247 286.56 643.29 285.664 643.332 284.767 644.186 284.169 645.083 283.614 646.066 283.058 646.877 282.589 647.689 282.161 648.5 281.777 649.311 282.161 650.123 282.589 650.934 283.058 651.789 283.571 652.643 284.083 653.411 284.596 653.497 285.535 653.497 286.475 653.497 287.5 653.497 288.568 653.454 289.593 653.369 290.575 652.685 291.045 651.959 291.472 651.191 291.942ZM653.155 292.753C653.027 293.565 652.899 294.376 652.771 295.102 652.045 294.846 651.276 294.59 650.507 294.248 651.02 293.992 651.532 293.693 652.045 293.394 652.429 293.18 652.814 292.967 653.155 292.753ZM646.493 294.248C645.639 294.59 644.827 294.889 644.016 295.145 643.845 294.333 643.717 293.479 643.589 292.582 644.058 292.881 644.485 293.138 644.998 293.436 645.468 293.693 645.98 293.992 646.493 294.248ZM641.581 289.123C640.898 288.61 640.3 288.098 639.745 287.585 640.3 287.073 640.941 286.56 641.581 286.048 641.581 286.518 641.539 286.987 641.539 287.5 641.539 288.055 641.539 288.61 641.581 289.123ZM643.546 282.589C643.674 281.649 643.802 280.752 643.973 279.898 644.784 280.154 645.639 280.496 646.493 280.837 646.066 281.051 645.596 281.307 645.169 281.564 644.656 281.905 644.101 282.247 643.546 282.589ZM650.465 280.837C651.233 280.496 652.002 280.24 652.771 279.983 652.942 280.752 653.07 281.564 653.198 282.418 652.728 282.119 652.301 281.862 651.789 281.564 651.361 281.35 650.934 281.094 650.465 280.837ZM655.162 285.877C655.931 286.475 656.615 287.03 657.255 287.628 656.615 288.183 655.931 288.781 655.162 289.336 655.205 288.739 655.205 288.141 655.205 287.543 655.205 286.945 655.205 286.39 655.162 285.877ZM648.372 272.125C649.653 272.125 651.319 274.389 652.386 278.318 651.148 278.745 649.824 279.257 648.5 279.855 647.091 279.215 645.724 278.659 644.4 278.232 645.468 274.346 647.091 272.125 648.372 272.125ZM635.047 279.813C635.431 279.172 636.542 278.83 638.122 278.83 639.36 278.83 640.77 279.044 642.307 279.428 642.008 280.795 641.795 282.29 641.667 283.827 640.471 284.681 639.403 285.535 638.464 286.432 635.602 283.528 634.406 280.923 635.047 279.813ZM638.378 296.17C636.798 296.17 635.645 295.785 635.303 295.188 634.662 294.077 635.773 291.6 638.506 288.781 639.489 289.635 640.556 290.49 641.709 291.344 641.838 292.839 642.051 294.291 642.35 295.615 640.941 295.999 639.574 296.17 638.378 296.17ZM648.372 302.875C647.091 302.875 645.468 300.654 644.4 296.81 645.724 296.383 647.091 295.871 648.5 295.23 649.824 295.828 651.105 296.341 652.344 296.725 651.276 300.654 649.653 302.875 648.372 302.875ZM661.697 295.188C661.313 295.828 660.202 296.17 658.622 296.17 657.383 296.17 655.931 295.956 654.436 295.572 654.693 294.291 654.906 292.967 655.034 291.515 656.316 290.618 657.469 289.721 658.494 288.781 661.227 291.6 662.338 294.077 661.697 295.188Z"/></g></g></g></g></svg>