<svg id="Capa_1" enable-background="new 0 0 512 512" height="512" viewBox="0 0 512 512" width="512" xmlns="http://www.w3.org/2000/svg"><g><path d="m504.488 116.883c4.148 0 7.512-3.363 7.512-7.512v-26.763c0-14.822-12.058-26.88-26.88-26.88h-458.24c-14.822 0-26.88 12.058-26.88 26.88v292.423c0 14.822 12.058 26.88 26.88 26.88h322.238v31.827c0 12.426 10.109 22.535 22.535 22.535h40.938c12.426 0 22.535-10.109 22.535-22.535v-31.827h49.993c14.822 0 26.88-12.058 26.88-26.88v-229.528c0-4.149-3.363-7.512-7.512-7.512s-7.512 3.363-7.512 7.512v75.805h-74.67l-13.403-39.032c-2.496-7.282-9.082-11.988-16.78-11.988-7.697 0-14.285 4.706-16.781 11.988l-25.144 72.982c-.695 2.008-1.058 4.09-1.079 6.263v29.892h-88.194v-55.082h64.058c4.148 0 7.512-3.363 7.512-7.512s-3.363-7.512-7.512-7.512h-64.058v-150.556h224.196c6.538 0 11.857 5.319 11.857 11.857v26.763c0 4.149 3.363 7.512 7.511 7.512zm-446.988 270.004c-.475-3.4-.715-6.819-.715-10.217 0-40.802 33.194-73.996 73.996-73.996 40.801 0 73.996 33.194 73.996 73.996 0 3.399-.24 6.818-.715 10.217zm319.713-163.773h29.821l10.695 30.899-51.204-.004zm42.89 45.922v134.521h-55.962v-134.525zm-7.511 172.213h-40.938c-4.142 0-7.512-3.369-7.512-7.512v-15.157h55.962v15.157c-.001 4.142-3.37 7.512-7.512 7.512zm84.385-66.218c0 6.538-5.319 11.857-11.857 11.857h-49.994v-80.451h61.851zm0-138.7v55.082h-61.851v-29.961c-.021-2.122-.38-4.206-1.069-6.195l-6.551-18.926zm-107.423-49.185c.547-1.597 1.845-1.835 2.569-1.835s2.021.239 2.568 1.835l7.178 20.945h-19.492zm-40.436 119.29v80.451h-88.194v-80.451zm-103.217-85.128h-99.915c3.817-43.983 40.839-78.609 85.795-78.609h14.12zm0-93.632h-14.12c-53.244 0-97.008 41.355-100.864 93.632h-48.843c-4.149 0-7.512 3.363-7.512 7.512s3.363 7.512 7.512 7.512h163.826v150.556h-26.7c.395-3.403.6-6.817.6-10.217 0-49.086-39.934-89.02-89.019-89.02-49.086 0-89.02 39.934-89.02 89.02 0 3.4.205 6.815.6 10.217h-15.481c-6.538 0-11.857-5.319-11.857-11.857v-138.7h28.768c4.149 0 7.512-3.363 7.512-7.512s-3.363-7.512-7.512-7.512h-28.768v-138.7c0-6.538 5.319-11.857 11.857-11.857h219.021z"/><path d="m87.562 170.362c18.058 0 32.749-14.691 32.749-32.749s-14.691-32.749-32.749-32.749-32.749 14.691-32.749 32.749 14.692 32.749 32.749 32.749zm0-50.475c9.774 0 17.726 7.952 17.726 17.726s-7.952 17.726-17.726 17.726-17.726-7.952-17.726-17.726 7.952-17.726 17.726-17.726z"/><path d="m355.933 105.844c-7.077-13.368-21.128-22.502-37.278-22.502-23.245 0-42.156 18.911-42.156 42.157 0 23.245 18.911 42.156 42.156 42.156 8.257 0 15.96-2.395 22.47-6.514 6.053 5.851 14.192 9.222 22.765 9.222 18.058 0 32.749-14.691 32.749-32.749s-14.691-32.749-32.749-32.749c-2.712-.001-5.372.332-7.957.979zm-64.411 19.655c0-14.961 12.172-27.133 27.133-27.133s27.133 12.172 27.133 27.133-12.172 27.133-27.133 27.133c-14.962-.001-27.133-12.172-27.133-27.133zm90.093 12.114c0 9.774-7.952 17.726-17.726 17.726-4.333 0-8.465-1.59-11.663-4.381 5.382-7.079 8.584-15.901 8.584-25.459 0-1.787-.125-3.545-.342-5.275 1.118-.218 2.259-.336 3.42-.336 9.776-.001 17.727 7.951 17.727 17.725z"/></g></svg>